<mxfile host="Electron" modified="2023-09-16T14:29:31.972Z" agent="Mozilla/5.0 (Windows NT 6.1; Win64; x64) AppleWebKit/537.36 (KHTML, like Gecko) draw.io/21.1.2 Chrome/106.0.5249.199 Electron/21.4.3 Safari/537.36" etag="qOmLqa0ae4ODEAvmlTgx" version="21.1.2" type="device">
  <diagram id="C5RBs43oDa-KdzZeNtuy" name="Page-1">
    <mxGraphModel dx="778" dy="773" grid="1" gridSize="10" guides="1" tooltips="1" connect="1" arrows="1" fold="1" page="1" pageScale="1" pageWidth="827" pageHeight="1169" math="0" shadow="0">
      <root>
        <mxCell id="WIyWlLk6GJQsqaUBKTNV-0" />
        <mxCell id="WIyWlLk6GJQsqaUBKTNV-1" parent="WIyWlLk6GJQsqaUBKTNV-0" />
        <mxCell id="wdTsUuusezCTvRD_Zr0d-10" value="" style="edgeStyle=orthogonalEdgeStyle;rounded=0;orthogonalLoop=1;jettySize=auto;html=1;" edge="1" parent="WIyWlLk6GJQsqaUBKTNV-1" source="WIyWlLk6GJQsqaUBKTNV-6" target="WIyWlLk6GJQsqaUBKTNV-10">
          <mxGeometry relative="1" as="geometry" />
        </mxCell>
        <mxCell id="wdTsUuusezCTvRD_Zr0d-15" style="edgeStyle=orthogonalEdgeStyle;rounded=0;orthogonalLoop=1;jettySize=auto;html=1;entryX=0.5;entryY=0;entryDx=0;entryDy=0;" edge="1" parent="WIyWlLk6GJQsqaUBKTNV-1" source="WIyWlLk6GJQsqaUBKTNV-6" target="wdTsUuusezCTvRD_Zr0d-14">
          <mxGeometry relative="1" as="geometry">
            <Array as="points">
              <mxPoint x="510" y="270" />
              <mxPoint x="510" y="550" />
              <mxPoint x="265" y="550" />
            </Array>
          </mxGeometry>
        </mxCell>
        <mxCell id="WIyWlLk6GJQsqaUBKTNV-6" value="&lt;font style=&quot;font-size: 12px;&quot;&gt;i &amp;lt; array.Length&lt;/font&gt;" style="rhombus;whiteSpace=wrap;html=1;shadow=0;fontFamily=Helvetica;fontSize=12;align=center;strokeWidth=1;spacing=6;spacingTop=-4;" parent="WIyWlLk6GJQsqaUBKTNV-1" vertex="1">
          <mxGeometry x="197.5" y="230" width="132.5" height="80" as="geometry" />
        </mxCell>
        <mxCell id="wdTsUuusezCTvRD_Zr0d-7" style="edgeStyle=orthogonalEdgeStyle;rounded=0;orthogonalLoop=1;jettySize=auto;html=1;entryX=0;entryY=0.5;entryDx=0;entryDy=0;" edge="1" parent="WIyWlLk6GJQsqaUBKTNV-1" source="WIyWlLk6GJQsqaUBKTNV-10" target="WIyWlLk6GJQsqaUBKTNV-6">
          <mxGeometry relative="1" as="geometry">
            <Array as="points">
              <mxPoint x="80" y="385" />
              <mxPoint x="80" y="270" />
            </Array>
          </mxGeometry>
        </mxCell>
        <mxCell id="wdTsUuusezCTvRD_Zr0d-11" value="" style="edgeStyle=orthogonalEdgeStyle;rounded=0;orthogonalLoop=1;jettySize=auto;html=1;" edge="1" parent="WIyWlLk6GJQsqaUBKTNV-1" source="WIyWlLk6GJQsqaUBKTNV-10" target="wdTsUuusezCTvRD_Zr0d-9">
          <mxGeometry relative="1" as="geometry" />
        </mxCell>
        <mxCell id="WIyWlLk6GJQsqaUBKTNV-10" value="&lt;font style=&quot;font-size: 12px;&quot;&gt;array[i] &amp;lt;= length&lt;/font&gt;" style="rhombus;whiteSpace=wrap;html=1;shadow=0;fontFamily=Helvetica;fontSize=12;align=center;strokeWidth=1;spacing=6;spacingTop=-4;" parent="WIyWlLk6GJQsqaUBKTNV-1" vertex="1">
          <mxGeometry x="201.25" y="340" width="128.75" height="90" as="geometry" />
        </mxCell>
        <mxCell id="wdTsUuusezCTvRD_Zr0d-4" style="edgeStyle=orthogonalEdgeStyle;rounded=0;orthogonalLoop=1;jettySize=auto;html=1;entryX=0.5;entryY=0;entryDx=0;entryDy=0;" edge="1" parent="WIyWlLk6GJQsqaUBKTNV-1" source="wdTsUuusezCTvRD_Zr0d-0" target="wdTsUuusezCTvRD_Zr0d-1">
          <mxGeometry relative="1" as="geometry" />
        </mxCell>
        <mxCell id="wdTsUuusezCTvRD_Zr0d-0" value="&lt;font size=&quot;3&quot;&gt;START&lt;/font&gt;" style="ellipse;whiteSpace=wrap;html=1;" vertex="1" parent="WIyWlLk6GJQsqaUBKTNV-1">
          <mxGeometry x="170" y="10" width="190" height="70" as="geometry" />
        </mxCell>
        <mxCell id="wdTsUuusezCTvRD_Zr0d-3" value="" style="edgeStyle=orthogonalEdgeStyle;rounded=0;orthogonalLoop=1;jettySize=auto;html=1;" edge="1" parent="WIyWlLk6GJQsqaUBKTNV-1" source="wdTsUuusezCTvRD_Zr0d-1" target="WIyWlLk6GJQsqaUBKTNV-6">
          <mxGeometry relative="1" as="geometry" />
        </mxCell>
        <mxCell id="wdTsUuusezCTvRD_Zr0d-1" value="&lt;font style=&quot;&quot;&gt;&lt;font style=&quot;font-size: 12px;&quot;&gt;array&lt;br&gt;newarray&lt;br&gt;length&lt;br&gt;newlengtharray&lt;/font&gt;&lt;br&gt;&lt;/font&gt;" style="shape=parallelogram;perimeter=parallelogramPerimeter;whiteSpace=wrap;html=1;fixedSize=1;" vertex="1" parent="WIyWlLk6GJQsqaUBKTNV-1">
          <mxGeometry x="185" y="120" width="160" height="80" as="geometry" />
        </mxCell>
        <mxCell id="wdTsUuusezCTvRD_Zr0d-8" value="&lt;font style=&quot;font-size: 11px;&quot;&gt;No&lt;/font&gt;" style="text;html=1;align=center;verticalAlign=middle;resizable=0;points=[];autosize=1;strokeColor=none;fillColor=none;" vertex="1" parent="WIyWlLk6GJQsqaUBKTNV-1">
          <mxGeometry x="127.5" y="360" width="40" height="30" as="geometry" />
        </mxCell>
        <mxCell id="wdTsUuusezCTvRD_Zr0d-13" style="edgeStyle=orthogonalEdgeStyle;rounded=0;orthogonalLoop=1;jettySize=auto;html=1;" edge="1" parent="WIyWlLk6GJQsqaUBKTNV-1" source="wdTsUuusezCTvRD_Zr0d-9">
          <mxGeometry relative="1" as="geometry">
            <mxPoint x="80" y="390" as="targetPoint" />
          </mxGeometry>
        </mxCell>
        <mxCell id="wdTsUuusezCTvRD_Zr0d-9" value="&lt;font style=&quot;font-size: 12px;&quot;&gt;newarray[newlengtharray] = array[i]&lt;br&gt;newlengtharray++&lt;br&gt;&lt;/font&gt;" style="rounded=0;whiteSpace=wrap;html=1;" vertex="1" parent="WIyWlLk6GJQsqaUBKTNV-1">
          <mxGeometry x="168.13" y="460" width="195" height="65" as="geometry" />
        </mxCell>
        <mxCell id="wdTsUuusezCTvRD_Zr0d-12" value="Yes" style="text;html=1;align=center;verticalAlign=middle;resizable=0;points=[];autosize=1;strokeColor=none;fillColor=none;" vertex="1" parent="WIyWlLk6GJQsqaUBKTNV-1">
          <mxGeometry x="285" y="425" width="40" height="30" as="geometry" />
        </mxCell>
        <mxCell id="wdTsUuusezCTvRD_Zr0d-19" value="" style="edgeStyle=orthogonalEdgeStyle;rounded=0;orthogonalLoop=1;jettySize=auto;html=1;" edge="1" parent="WIyWlLk6GJQsqaUBKTNV-1" source="wdTsUuusezCTvRD_Zr0d-14" target="wdTsUuusezCTvRD_Zr0d-18">
          <mxGeometry relative="1" as="geometry" />
        </mxCell>
        <mxCell id="wdTsUuusezCTvRD_Zr0d-14" value="string[] finalarray = new string[newlengtharray" style="shape=parallelogram;perimeter=parallelogramPerimeter;whiteSpace=wrap;html=1;fixedSize=1;" vertex="1" parent="WIyWlLk6GJQsqaUBKTNV-1">
          <mxGeometry x="170" y="570" width="190" height="60" as="geometry" />
        </mxCell>
        <mxCell id="wdTsUuusezCTvRD_Zr0d-16" value="Yes" style="text;html=1;align=center;verticalAlign=middle;resizable=0;points=[];autosize=1;strokeColor=none;fillColor=none;" vertex="1" parent="WIyWlLk6GJQsqaUBKTNV-1">
          <mxGeometry x="260" y="310" width="40" height="30" as="geometry" />
        </mxCell>
        <mxCell id="wdTsUuusezCTvRD_Zr0d-17" value="No" style="text;html=1;align=center;verticalAlign=middle;resizable=0;points=[];autosize=1;strokeColor=none;fillColor=none;" vertex="1" parent="WIyWlLk6GJQsqaUBKTNV-1">
          <mxGeometry x="380" y="240" width="40" height="30" as="geometry" />
        </mxCell>
        <mxCell id="wdTsUuusezCTvRD_Zr0d-21" value="" style="edgeStyle=orthogonalEdgeStyle;rounded=0;orthogonalLoop=1;jettySize=auto;html=1;" edge="1" parent="WIyWlLk6GJQsqaUBKTNV-1" source="wdTsUuusezCTvRD_Zr0d-18" target="wdTsUuusezCTvRD_Zr0d-20">
          <mxGeometry relative="1" as="geometry" />
        </mxCell>
        <mxCell id="wdTsUuusezCTvRD_Zr0d-26" style="edgeStyle=orthogonalEdgeStyle;rounded=0;orthogonalLoop=1;jettySize=auto;html=1;exitX=1;exitY=0.5;exitDx=0;exitDy=0;entryX=0.5;entryY=0;entryDx=0;entryDy=0;" edge="1" parent="WIyWlLk6GJQsqaUBKTNV-1" source="wdTsUuusezCTvRD_Zr0d-18" target="wdTsUuusezCTvRD_Zr0d-24">
          <mxGeometry relative="1" as="geometry">
            <Array as="points">
              <mxPoint x="510" y="715" />
              <mxPoint x="510" y="900" />
              <mxPoint x="264" y="900" />
            </Array>
          </mxGeometry>
        </mxCell>
        <mxCell id="wdTsUuusezCTvRD_Zr0d-18" value="j&amp;nbsp; &amp;lt; finalarray.Length" style="rhombus;whiteSpace=wrap;html=1;" vertex="1" parent="WIyWlLk6GJQsqaUBKTNV-1">
          <mxGeometry x="193.75" y="660" width="140" height="110" as="geometry" />
        </mxCell>
        <mxCell id="wdTsUuusezCTvRD_Zr0d-22" style="edgeStyle=orthogonalEdgeStyle;rounded=0;orthogonalLoop=1;jettySize=auto;html=1;" edge="1" parent="WIyWlLk6GJQsqaUBKTNV-1" source="wdTsUuusezCTvRD_Zr0d-20">
          <mxGeometry relative="1" as="geometry">
            <mxPoint x="190" y="720" as="targetPoint" />
            <Array as="points">
              <mxPoint x="80" y="830" />
              <mxPoint x="80" y="720" />
            </Array>
          </mxGeometry>
        </mxCell>
        <mxCell id="wdTsUuusezCTvRD_Zr0d-20" value="finalarray [j] = newarray [j]" style="rounded=0;whiteSpace=wrap;html=1;" vertex="1" parent="WIyWlLk6GJQsqaUBKTNV-1">
          <mxGeometry x="203.75" y="800" width="120" height="60" as="geometry" />
        </mxCell>
        <mxCell id="wdTsUuusezCTvRD_Zr0d-23" value="Yes" style="text;html=1;align=center;verticalAlign=middle;resizable=0;points=[];autosize=1;strokeColor=none;fillColor=none;" vertex="1" parent="WIyWlLk6GJQsqaUBKTNV-1">
          <mxGeometry x="260" y="765" width="40" height="30" as="geometry" />
        </mxCell>
        <mxCell id="wdTsUuusezCTvRD_Zr0d-30" value="" style="edgeStyle=orthogonalEdgeStyle;rounded=0;orthogonalLoop=1;jettySize=auto;html=1;" edge="1" parent="WIyWlLk6GJQsqaUBKTNV-1" source="wdTsUuusezCTvRD_Zr0d-24" target="wdTsUuusezCTvRD_Zr0d-29">
          <mxGeometry relative="1" as="geometry" />
        </mxCell>
        <mxCell id="wdTsUuusezCTvRD_Zr0d-24" value="finalarray" style="shape=document;whiteSpace=wrap;html=1;boundedLbl=1;" vertex="1" parent="WIyWlLk6GJQsqaUBKTNV-1">
          <mxGeometry x="203.75" y="930" width="120" height="60" as="geometry" />
        </mxCell>
        <mxCell id="wdTsUuusezCTvRD_Zr0d-27" value="No" style="text;html=1;align=center;verticalAlign=middle;resizable=0;points=[];autosize=1;strokeColor=none;fillColor=none;" vertex="1" parent="WIyWlLk6GJQsqaUBKTNV-1">
          <mxGeometry x="350" y="690" width="40" height="30" as="geometry" />
        </mxCell>
        <mxCell id="wdTsUuusezCTvRD_Zr0d-29" value="&lt;font size=&quot;3&quot;&gt;FINISH&lt;/font&gt;" style="ellipse;whiteSpace=wrap;html=1;" vertex="1" parent="WIyWlLk6GJQsqaUBKTNV-1">
          <mxGeometry x="203.75" y="1010" width="120" height="80" as="geometry" />
        </mxCell>
      </root>
    </mxGraphModel>
  </diagram>
</mxfile>
